<svg xmlns="http://www.w3.org/2000/svg" viewBox="0 0 232.58 139.66"><defs><style>.cls-1{fill:#07b6d5;}</style></defs><g id="Ebene_2" data-name="Ebene 2"><g id="Ebene_1-2" data-name="Ebene 1"><path class="cls-1" d="M113.76.05C72.84,1.35,60.68,30.58,57.89,46.41,61.52,40.54,73,27.66,89.82,27.66c19.63,0,34.58,21.92,43.7,28.76,11.08,8.31,33.35,19.28,62.58,10.39,23.31-7.1,34.12-31.84,36.48-43.58-11.27,15.33-28.37,24.53-49.53,13.68C168.48,29.44,157.59-1.35,113.76.05Z"/><path class="cls-1" d="M55.87,69.59C15,70.89,2.79,100.12,0,116c3.63-5.87,15.07-18.75,31.92-18.75,19.64,0,34.59,21.92,43.71,28.76,11.08,8.31,33.35,19.28,62.58,10.38,23.31-7.09,34.12-31.84,36.48-43.57-11.27,15.32-28.37,24.53-49.53,13.68C110.59,99,99.7,68.2,55.87,69.59Z"/></g></g></svg>
